<?xml version="1.0" encoding="iso-8859-1"?>
<!-- Generator: Adobe Illustrator 19.0.0, SVG Export Plug-In . SVG Version: 6.00 Build 0)  -->
<svg version="1.1" id="Capa_1" xmlns="http://www.w3.org/2000/svg" xmlns:xlink="http://www.w3.org/1999/xlink" x="0px" y="0px"
	 viewBox="0 0 512 512" style="enable-background:new 0 0 512 512;" xml:space="preserve">
<g>
	<g>
		<path d="M414.183,158.906h-34.356c-7.929,0-15.27,2.545-21.268,6.849V91.501c0-21.662-17.624-39.286-39.287-39.286
			c-9.027,0-17.346,3.068-23.987,8.205V39.286C295.286,17.624,277.662,0,256,0s-39.286,17.624-39.286,39.286V60.42
			c-6.641-5.137-14.96-8.205-23.987-8.205c-21.662,0-39.287,17.624-39.287,39.286v8.288c-6.455-4.889-14.49-7.797-23.193-7.797
			h-1.587c-21.225,0-38.493,17.268-38.493,38.492V233.47v112.697c0,44.486,17.376,86.257,48.928,117.618
			c1.492,1.483,3.442,2.224,5.392,2.224c1.965,0,3.93-0.753,5.425-2.257c2.978-2.996,2.963-7.84-0.033-10.818
			c-28.641-28.468-44.414-66.385-44.414-106.767V233.47V130.484c0-12.789,10.405-23.193,23.194-23.193h1.587
			c12.789,0,23.193,10.404,23.193,23.193V233.47c0,4.225,3.424,7.649,7.649,7.649c4.225,0,7.649-3.424,7.649-7.649V130.484V91.501
			c0-13.226,10.761-23.987,23.988-23.987c13.226,0,23.987,10.761,23.987,23.987V233.47c0,4.225,3.424,7.649,7.649,7.649
			c4.225,0,7.649-3.424,7.649-7.649V91.501V39.286c0-13.226,10.761-23.987,23.987-23.987s23.987,10.761,23.987,23.987v93.604
			c0,4.225,3.424,7.649,7.649,7.649s7.649-3.424,7.649-7.649V91.501c0-13.226,10.761-23.987,23.987-23.987
			c13.227,0,23.988,10.761,23.988,23.987v103.972v37.997v47.207c0,4.225,3.424,7.649,7.649,7.649s7.649-3.424,7.649-7.649V233.47
			v-37.997c0-11.727,9.541-21.268,21.268-21.268h26.706v59.265v75.273v37.424c0,83.005-67.529,150.534-150.534,150.534
			c-29.557,0-58.163-8.558-82.728-24.749c-3.526-2.326-8.271-1.351-10.597,2.176c-2.326,3.528-1.351,8.272,2.176,10.597
			C191.923,502.569,223.441,512,256,512c91.44,0,165.833-74.392,165.833-165.833v-37.424V233.47v-66.914
			C421.833,162.331,418.408,158.906,414.183,158.906z"/>
	</g>
</g>
<g>
	<g>
		<path d="M287.637,158.907c-4.225,0-7.649,3.424-7.649,7.649v66.914c0,4.225,3.424,7.649,7.649,7.649s7.649-3.424,7.649-7.649
			v-66.914C295.286,162.331,291.862,158.907,287.637,158.907z"/>
	</g>
</g>
<g>
	<g>
		<path d="M319.39,274.497c-1.435-3.974-5.824-6.03-9.793-4.596c-94.072,33.981-142.522,39.661-174.222,40.813
			c-4.223,0.154-7.52,3.7-7.367,7.922c0.15,4.128,3.543,7.372,7.639,7.372c0.094,0,0.188-0.002,0.283-0.005
			c32.814-1.192,82.798-7.011,178.864-41.713C318.767,282.855,320.825,278.47,319.39,274.497z"/>
	</g>
</g>
<g>
	<g>
		<path d="M361.599,306.288c-1.356-4.002-5.698-6.147-9.699-4.791c-0.989,0.335-99.474,33.631-149.505,44.971
			c-29.012,6.575-43.658,8.626-50.608,9.233c-3.235,0.283-5.902,2.631-6.585,5.806c-0.016,0.073-0.031,0.145-0.047,0.218
			c-1.039,4.809,2.826,9.275,7.733,8.926c9.859-0.701,27.278-2.895,52.887-9.262c22.117-5.498,53.136-14.095,81.218-22.805
			c-20.671,23.271-27.045,50.437-30.322,64.409c-4.29,18.287-5.558,37.278-3.769,56.446c0.371,3.964,3.703,6.939,7.608,6.939
			c0.274,0,0.551-0.016,0.83-0.044c4.143-0.425,7.183-4.17,6.796-8.317c-1.635-17.519-0.481-34.855,3.43-51.531
			c3.645-15.539,10.429-44.463,35.366-66.16c6.941-6.04,14.801-11.092,23.361-15.014c0.635-0.291,1.205-0.665,1.717-1.092
			c14.073-4.606,23.578-7.819,24.798-8.233C360.809,314.631,362.954,310.289,361.599,306.288z"/>
	</g>
</g>
<g>
</g>
<g>
</g>
<g>
</g>
<g>
</g>
<g>
</g>
<g>
</g>
<g>
</g>
<g>
</g>
<g>
</g>
<g>
</g>
<g>
</g>
<g>
</g>
<g>
</g>
<g>
</g>
<g>
</g>
</svg>
